<?xml version="1.0" encoding="UTF-8"?>
<svg width="752pt" height="752pt" version="1.1" viewBox="0 0 752 752" xmlns="http://www.w3.org/2000/svg">
 <path d="m376 168.81c-31.398 0-61.512 12.477-83.715 34.68-22.207 22.203-34.68 52.316-34.68 83.715 0 31.402 12.473 61.516 34.68 83.719 22.203 22.203 52.316 34.68 83.715 34.68 31.402 0 61.516-12.477 83.719-34.68s34.68-52.316 34.68-83.719c0-31.398-12.477-61.512-34.68-83.715s-52.316-34.68-83.719-34.68zm-95.848 230.81c-66.141 34.605-111.34 103.76-111.34 183.57h414.38c0-79.816-45.199-148.97-111.34-183.57-25.879 22.117-59.352 35.582-95.852 35.582-36.496 0-69.969-13.465-95.848-35.582z"/>
</svg>
